<svg xmlns="http://www.w3.org/2000/svg" width="538" height="384" viewBox="0 0 538 384">
  <path fill="none" stroke="#000" stroke-width="10" d="M94.6013607,383.516096 C94.541278,380.37529 94.3630005,372.781122 92.6555861,365.154719 C90.6966234,356.404741 85.3645215,340.781631 84.9542742,338.34419 C83.4922705,329.657846 80.3768929,310.592814 78.9362713,300.5689 C76.991276,287.035529 76.6200665,284.260993 74.1055116,270.733867 C71.9205734,258.979924 66.8361189,230.817661 64.0291786,221.50951 C53.7871105,187.545585 44.44101,162.623534 40.9215012,144.485166 C36.1661136,119.977493 22.4946324,92.9761047 13.9548824,89.1567441 C12.7394109,88.6131305 10.7654534,89.2146688 6.9292461,109.724758 C4.56545065,122.362671 4.58605828,139.797446 5.85105175,153.295142 C8.35810752,180.045854 22.5095822,242.310249 25.1270499,252.273063 C25.8580012,255.055268 29.7025095,272.541377 37.4169687,287.863105 C43.9728145,300.883705 52.7520255,316.128212 64.0291786,323.97165 C74.3929647,331.179827 87.0511483,330.550984 97.8466348,329.606379 C114.153586,328.17952 138.523995,309.278431 148.497977,299.521438 C152.651728,295.458055 154.054645,290.85722 155.40468,286.583912 C157.928055,278.596588 163.705761,247.337531 151.890525,241.395652 C142.129709,236.48694 138.901131,249.446563 139.712863,264.641561 C140.413371,277.754563 146.518413,289.771218 154.029274,300.5689 C159.479987,308.404895 166.13691,319.008321 175.584608,319.40496 C180.613427,319.616083 186.330813,315.191475 191.440533,307.072812 C195.930499,299.938853 199.956186,289.017211 202.56566,288.726937 C208.144794,288.10632 210.052615,309.533361 216.551182,309.456386 C223.049749,309.37941 226.54359,289.598259 233.232992,289.665612 C239.922394,289.732966 237.936883,312.446678 248.150776,312.446678 C259.689647,312.446678 258.316379,303.810432 268.43708,304.172324 C273.709844,304.360866 276.361301,316.326467 284.824351,316.199778 C293.287402,316.073088 297.078744,303.458188 298.443704,299.521438 C304.862551,281.008519 305.630241,261.281794 305.630241,241.395652 C305.630241,221.50951 306.112813,192.79669 303.113564,119.428507 C301.432582,78.3080324 265.314627,7.8144184 255.072215,5.08345247 C248.124456,3.23094977 239.092075,32.519265 234.695634,63.1517587 C228.286624,107.806955 232.510729,161.835363 234.695634,184.052476 C239.294678,230.817661 268.43708,250.323797 298.443704,250.323797 C321.398737,250.323797 340.983058,243.340757 354.792202,230.817661 C380.110192,207.857537 380.224198,194.258048 384.857416,194.258048 C389.490635,194.258048 379.34678,237.130129 391.139225,246.776094 C399.026073,253.227365 414.36284,253.183487 432.949635,230.396583 C436.189174,226.424997 440.385586,261.866493 466.377468,261.437373 C492.36935,261.008252 490.532459,260.987757 504.188733,238.020213 C526.671654,200.207741 532.371927,173.034959 533,171.333633"/>
</svg>
